<svg xmlns="http://www.w3.org/2000/svg" viewBox="0 0 1600 1000" role="img" aria-label="Classical concert hall with warm stage lights">
  <rect width="1600" height="1000" fill="#090806"/>
  <path d="M0 0h1600v1000H0z" fill="#1b120d"/>
  <path d="M182 0h1236l-148 652H330z" fill="#2a1b13"/>
  <path d="M284 92h1032l-96 476H380z" fill="#0d0b0a"/>
  <path d="M420 596h760l-90 132H510z" fill="#3b281d"/>
  <path d="M520 476h560v132H520z" fill="#19110d"/>
  <path d="M648 304h304v174H648z" fill="#2c1d14"/>
  <path d="M694 336h212v142H694z" fill="#090806"/>
  <path d="M182 760c178-55 384-82 618-82s440 27 618 82v240H182z" fill="#100c09"/>
  <g fill="none" stroke="#8b5e34" stroke-width="5" opacity=".65">
    <path d="M232 820c164-45 353-68 568-68s404 23 568 68"/>
    <path d="M212 900c172-42 368-63 588-63s416 21 588 63"/>
  </g>
  <g fill="#f8d38a" opacity=".82">
    <circle cx="440" cy="194" r="30"/>
    <circle cx="1160" cy="194" r="30"/>
    <circle cx="800" cy="148" r="36"/>
  </g>
  <path d="M440 224 288 596h120l92-372z" fill="#f59e0b" opacity=".25"/>
  <path d="M1160 224 1312 596h-120l-92-372z" fill="#f59e0b" opacity=".25"/>
  <path d="M800 184 688 596h224z" fill="#fef3c7" opacity=".14"/>
  <g fill="#54351f">
    <rect x="552" y="804" width="44" height="34"/>
    <rect x="632" y="792" width="44" height="34"/>
    <rect x="712" y="786" width="44" height="34"/>
    <rect x="792" y="784" width="44" height="34"/>
    <rect x="872" y="786" width="44" height="34"/>
    <rect x="952" y="792" width="44" height="34"/>
    <rect x="1032" y="804" width="44" height="34"/>
  </g>
</svg>
